<svg width="12" height="16" viewBox="0 0 12 16" fill="none" xmlns="http://www.w3.org/2000/svg">
<path d="M5.77401 2.66674L5.77401 1.45964L4.92045 2.31319L1.51007 5.72357L1.86362 6.07713L1.51007 5.72357C1.4215 5.81214 1.27799 5.81214 1.18943 5.72357C1.10092 5.63507 1.10092 5.49144 1.18943 5.40293L5.8404 0.751959C5.92896 0.663395 6.07248 0.663395 6.16104 0.751958L6.5146 0.398405L6.16105 0.751963L10.8119 5.40267C10.8564 5.44721 10.8784 5.50449 10.8784 5.56314C10.8784 5.62181 10.8564 5.67906 10.812 5.72346C10.7235 5.81202 10.5799 5.81202 10.4914 5.72346L10.4914 5.72345L7.08098 2.31318L6.22744 1.45966L6.22744 2.66674L6.22744 15.088C6.22744 15.2131 6.12587 15.3147 6.00072 15.3147C5.87554 15.3147 5.77401 15.2132 5.77401 15.088L5.77401 2.66674Z" fill="#0C0B0B" stroke="#0C0B0B"/>
</svg>
