<svg width="12" height="16" viewBox="0 0 12 16" fill="none" xmlns="http://www.w3.org/2000/svg">
<path d="M6.22599 13.3333L6.22599 14.5404L7.07955 13.6868L10.4899 10.2764L10.1364 9.92287L10.4899 10.2764C10.5785 10.1879 10.722 10.1879 10.8106 10.2764C10.8991 10.3649 10.8991 10.5086 10.8106 10.5971L6.1596 15.248C6.07104 15.3366 5.92752 15.3366 5.83896 15.248L5.4854 15.6016L5.83895 15.248L1.18813 10.5973C1.14362 10.5528 1.12159 10.4955 1.12159 10.4369C1.12159 10.3782 1.14364 10.3209 1.18798 10.2765C1.27655 10.188 1.42006 10.188 1.50863 10.2765L1.50863 10.2765L4.91902 13.6868L5.77256 14.5403L5.77256 13.3333L5.77256 0.912017C5.77256 0.786865 5.87413 0.685302 5.99928 0.685302C6.12446 0.685303 6.22599 0.786839 6.22599 0.912017L6.22599 13.3333Z" fill="#0C0B0B" stroke="#0C0B0B"/>
</svg>
