<svg width="49" height="49" viewBox="0 0 49 49" fill="none" xmlns="http://www.w3.org/2000/svg">
<circle cx="24.955" cy="24.0098" r="24" transform="rotate(0.0234016 24.955 24.0098)" fill="#1877F2"/>
<path fill-rule="evenodd" clip-rule="evenodd" d="M34.2935 30.9505L35.3604 24.0131L28.7038 24.0104L28.7056 19.5082C28.7064 17.6102 29.637 15.7605 32.6186 15.7617L35.6451 15.7629L35.6475 9.85643C35.6475 9.85643 32.901 9.38654 30.275 9.38546C24.7926 9.38323 21.208 12.7044 21.2055 18.7196L21.2034 24.0073L15.1093 24.0048L15.1064 30.9426L21.2005 30.9451L21.1937 47.7167C22.4156 47.9089 23.668 48.0093 24.9438 48.0098C26.2196 48.0103 27.4721 47.911 28.6941 47.7198L28.701 30.9482L34.2935 30.9505" fill="white"/>
</svg>
