<svg width="13" height="14" viewBox="0 0 13 14" fill="none" xmlns="http://www.w3.org/2000/svg">
<path d="M12.5103 5.16294C12.471 5.04741 12.3988 4.94589 12.3025 4.87092C12.2063 4.79595 12.0901 4.75081 11.9685 4.74108L8.41029 4.45838L6.87054 1.05044C6.8215 0.940672 6.74174 0.847445 6.64088 0.782004C6.54003 0.716563 6.42238 0.681707 6.30215 0.681641C6.18192 0.681575 6.06424 0.716302 5.96331 0.781632C5.86238 0.846962 5.78252 0.940102 5.73336 1.04981L4.19361 4.45838L0.635395 4.74108C0.515844 4.75055 0.401554 4.79426 0.306196 4.86697C0.210838 4.93969 0.138451 5.03833 0.0976952 5.1511C0.0569391 5.26387 0.0495396 5.386 0.076382 5.50286C0.103224 5.61973 0.163172 5.72639 0.249053 5.81008L2.87855 8.37306L1.94858 12.3994C1.92034 12.5213 1.92939 12.6489 1.97456 12.7655C2.01972 12.8822 2.09891 12.9826 2.20186 13.0537C2.3048 13.1248 2.42675 13.1634 2.55186 13.1643C2.67698 13.1653 2.7995 13.1286 2.90351 13.0591L6.30195 10.7938L9.70038 13.0591C9.8067 13.1297 9.93208 13.166 10.0597 13.1632C10.1872 13.1604 10.3109 13.1186 10.414 13.0434C10.5171 12.9683 10.5948 12.8633 10.6364 12.7427C10.6781 12.6221 10.6819 12.4917 10.6472 12.3689L9.50565 8.37494L12.3367 5.82756C12.5221 5.66031 12.5901 5.39946 12.5103 5.16294Z" fill="#FFD522"/>
</svg>
