<svg width="49" height="49" viewBox="0 0 49 49" fill="none" xmlns="http://www.w3.org/2000/svg">
<circle cx="24.955" cy="24.0098" r="24" transform="rotate(0.0234016 24.955 24.0098)" fill="url(#paint0_linear_37_366)"/>
<path fill-rule="evenodd" clip-rule="evenodd" d="M24.961 8.00983C20.6156 8.00806 20.0707 8.02625 18.3641 8.10342C16.6611 8.1804 15.4979 8.45042 14.48 8.84556C13.4277 9.25396 12.5352 9.80069 11.6453 10.6898C10.7554 11.579 10.208 12.4711 9.79869 13.523C9.40273 14.5406 9.13175 15.7036 9.05338 17.4066C8.97482 19.1131 8.95618 19.658 8.9544 24.0033C8.95263 28.3486 8.97082 28.8935 9.04799 30.6001C9.12497 32.3032 9.395 33.4664 9.79013 34.4842C10.1985 35.5366 10.7453 36.4291 11.6344 37.319C12.5236 38.2088 13.4156 38.7563 14.4676 39.1656C15.4852 39.5615 16.6481 39.8325 18.3511 39.9108C20.0577 39.9894 20.6025 40.0081 24.9479 40.0098C29.2932 40.0116 29.8381 39.9934 31.5447 39.9162C33.2477 39.8393 34.4109 39.5692 35.4288 39.1742C36.4811 38.7657 37.3736 38.219 38.2635 37.3298C39.1534 36.4407 39.7009 35.5486 40.1102 34.4966C40.5061 33.4791 40.7771 32.3161 40.8554 30.6131C40.934 28.9066 40.9526 28.3617 40.9544 24.0164C40.9562 19.671 40.938 19.1261 40.8608 17.4195C40.7838 15.7165 40.5138 14.5533 40.1187 13.5354C39.7103 12.4831 39.1635 11.5906 38.2744 10.7007C37.3852 9.81084 36.4932 9.26338 35.4412 8.85412C34.4236 8.45815 33.2607 8.18718 31.5577 8.10881C29.8511 8.03025 29.3063 8.01161 24.961 8.00983ZM24.9598 10.8927C29.2319 10.8945 29.738 10.911 31.4251 10.9886C32.985 11.0604 33.8321 11.3214 34.3958 11.5408C35.1426 11.8313 35.6754 12.1783 36.235 12.7384C36.7947 13.2985 37.1412 13.8316 37.4312 14.5786C37.6501 15.1425 37.9104 15.9898 37.9809 17.5498C38.0572 19.2369 38.0733 19.743 38.0715 24.0152C38.0698 28.2874 38.0532 28.7934 37.9756 30.4805C37.9038 32.0405 37.6428 32.8876 37.4235 33.4513C37.1329 34.198 36.786 34.7308 36.2258 35.2905C35.6657 35.8502 35.1326 36.1967 34.3856 36.4866C33.8218 36.7055 32.9745 36.9658 31.4145 37.0363C29.7275 37.1126 29.2215 37.1287 24.9491 37.127C20.6766 37.1252 20.1706 37.1087 18.4837 37.031C16.9238 36.9592 16.0767 36.6982 15.513 36.4789C14.7662 36.1883 14.2334 35.8414 13.6738 35.2813C13.1141 34.7212 12.7676 34.188 12.4776 33.4411C12.2587 32.8772 11.9984 32.0299 11.9279 30.4699C11.8517 28.7827 11.8355 28.2766 11.8373 24.0045C11.839 19.7323 11.8556 19.2262 11.9332 17.5391C12.005 15.9792 12.266 15.1321 12.4853 14.5684C12.7759 13.8217 13.1228 13.2888 13.683 12.7292C14.2431 12.1695 14.7762 11.823 15.5232 11.5331C16.087 11.3142 16.9343 11.0539 18.4943 10.9834C20.1815 10.9071 20.6876 10.891 24.9598 10.8927V10.8927Z" fill="white"/>
<path fill-rule="evenodd" clip-rule="evenodd" d="M24.9529 29.3432C22.0073 29.342 19.6205 26.9532 19.6217 24.0077C19.6229 21.0621 22.0117 18.6753 24.9573 18.6765C27.9028 18.6777 30.2896 21.0665 30.2884 24.0121C30.2872 26.9576 27.8984 29.3444 24.9529 29.3432ZM24.9584 15.7936C20.4207 15.7918 16.7407 19.4688 16.7388 24.0065C16.737 28.5442 20.414 32.2242 24.9517 32.2261C29.4894 32.2279 33.1694 28.5509 33.1713 24.0132C33.1731 19.4755 29.4961 15.7955 24.9584 15.7936V15.7936Z" fill="white"/>
<path fill-rule="evenodd" clip-rule="evenodd" d="M35.4193 15.4732C35.4189 16.5336 34.5589 17.3929 33.4985 17.3924C32.4381 17.392 31.5789 16.5321 31.5793 15.4717C31.5797 14.4113 32.4397 13.552 33.5 13.5524C34.5604 13.5529 35.4197 14.4128 35.4193 15.4732" fill="white"/>
<defs>
<linearGradient id="paint0_linear_37_366" x1="24.955" y1="72.0098" x2="72.955" y2="24.0098" gradientUnits="userSpaceOnUse">
<stop stop-color="#FFD522"/>
<stop offset="0.497382" stop-color="#F1000B"/>
<stop offset="1" stop-color="#B900B3"/>
</linearGradient>
</defs>
</svg>
