<svg width="49" height="49" viewBox="0 0 49 49" fill="none" xmlns="http://www.w3.org/2000/svg">
<circle cx="24.955" cy="24.0098" r="24" transform="rotate(0.0234016 24.955 24.0098)" fill="#0A66C2"/>
<path d="M37.9493 35.015L32.9801 35.013L32.9833 27.2175C32.9841 25.3585 32.9519 22.9655 30.4006 22.9645C27.8125 22.9634 27.4156 24.9885 27.4148 27.0798L27.4115 35.0101L22.4425 35.0081L22.4491 18.9773L27.2193 18.9793L27.2184 21.17L27.2853 21.1701C28.2573 19.5068 30.0703 18.5103 31.9931 18.5826C37.0294 18.5846 37.9567 21.9035 37.955 26.2208L37.9493 35.015Z" fill="white"/>
<path d="M16.8428 16.7837C16.8425 16.7837 16.8424 16.7837 16.8422 16.7837C15.2603 16.7831 13.9591 15.4787 13.9598 13.894C13.9604 12.3093 15.2627 11.0058 16.8446 11.0064C18.4264 11.0071 19.7274 12.3113 19.7271 13.8957C19.7271 13.8959 19.7271 13.896 19.7271 13.8963C19.7265 15.4807 18.4245 16.7842 16.8428 16.7837" fill="white"/>
<path d="M19.3193 35.0074L14.345 35.0054L14.3516 18.974L19.3258 18.976L19.3193 35.0074Z" fill="white"/>
</svg>
