<svg width="1512" height="443" viewBox="0 0 1512 443" fill="none" xmlns="http://www.w3.org/2000/svg">
<g clip-path="url(#clip0_37_465)">
<rect width="1512" height="443" fill="white"/>
<g filter="url(#filter0_f_37_465)">
<path fill-rule="evenodd" clip-rule="evenodd" d="M1328.58 214.038C1320.9 281.106 1246.69 309.068 1180.38 321.701C1125.4 332.174 1066.98 317.186 1037.79 269.434C1008.64 221.762 1021.22 162.344 1056.44 118.969C1095.13 71.3213 1152.84 36.1447 1210.79 56.3866C1279.25 80.3052 1336.84 141.984 1328.58 214.038Z" fill="#41B883"/>
</g>
<path d="M67.998 0L67.9981 443" stroke="url(#paint0_linear_37_465)" stroke-opacity="0.18"/>
<path d="M497.998 0L497.998 443" stroke="url(#paint1_linear_37_465)" stroke-opacity="0.18"/>
<path d="M927.998 0L927.998 443" stroke="url(#paint2_linear_37_465)" stroke-opacity="0.18"/>
<path d="M1358 0L1358 443" stroke="url(#paint3_linear_37_465)" stroke-opacity="0.18"/>
<path d="M153.998 0L153.998 443" stroke="url(#paint4_linear_37_465)" stroke-opacity="0.18"/>
<path d="M583.998 0L583.998 443" stroke="url(#paint5_linear_37_465)" stroke-opacity="0.18"/>
<path d="M1014 0L1014 443" stroke="url(#paint6_linear_37_465)" stroke-opacity="0.18"/>
<path d="M1444 0L1444 443" stroke="url(#paint7_linear_37_465)" stroke-opacity="0.18"/>
<path d="M239.998 0L239.998 443" stroke="url(#paint8_linear_37_465)" stroke-opacity="0.18"/>
<path d="M669.998 0L669.998 443" stroke="url(#paint9_linear_37_465)" stroke-opacity="0.18"/>
<path d="M1100 0L1100 443" stroke="url(#paint10_linear_37_465)" stroke-opacity="0.18"/>
<path d="M325.998 0L325.998 443" stroke="url(#paint11_linear_37_465)" stroke-opacity="0.18"/>
<path d="M755.998 0L755.998 443" stroke="url(#paint12_linear_37_465)" stroke-opacity="0.18"/>
<path d="M1186 0L1186 443" stroke="url(#paint13_linear_37_465)" stroke-opacity="0.18"/>
<path d="M411.998 0L411.998 443" stroke="url(#paint14_linear_37_465)" stroke-opacity="0.18"/>
<path d="M841.998 0L841.998 443" stroke="url(#paint15_linear_37_465)" stroke-opacity="0.18"/>
<path d="M1272 0L1272 443" stroke="url(#paint16_linear_37_465)" stroke-opacity="0.18"/>
<path d="M1512 74.375L-0.407085 73.8464" stroke="url(#paint17_linear_37_465)"/>
<path d="M1512 368L-0.407085 367.471" stroke="url(#paint18_linear_37_465)"/>
<path d="M1512 172L-0.407085 171.471" stroke="url(#paint19_linear_37_465)"/>
<path d="M1512 270L-0.407085 269.471" stroke="url(#paint20_linear_37_465)"/>
</g>
<defs>
<filter id="filter0_f_37_465" x="596.59" y="-374.452" width="1157.79" height="1124.32" filterUnits="userSpaceOnUse" color-interpolation-filters="sRGB">
<feFlood flood-opacity="0" result="BackgroundImageFix"/>
<feBlend mode="normal" in="SourceGraphic" in2="BackgroundImageFix" result="shape"/>
<feGaussianBlur stdDeviation="212.5" result="effect1_foregroundBlur_37_465"/>
</filter>
<linearGradient id="paint0_linear_37_465" x1="68.498" y1="-2.49779e-08" x2="68.4981" y2="443" gradientUnits="userSpaceOnUse">
<stop stop-color="#7832DF" stop-opacity="0.6"/>
<stop offset="1" stop-opacity="0"/>
</linearGradient>
<linearGradient id="paint1_linear_37_465" x1="498.498" y1="-2.49779e-08" x2="498.498" y2="443" gradientUnits="userSpaceOnUse">
<stop stop-color="#7832DF" stop-opacity="0.6"/>
<stop offset="1" stop-opacity="0"/>
</linearGradient>
<linearGradient id="paint2_linear_37_465" x1="928.498" y1="-2.49779e-08" x2="928.498" y2="443" gradientUnits="userSpaceOnUse">
<stop stop-color="#7832DF" stop-opacity="0.6"/>
<stop offset="1" stop-opacity="0"/>
</linearGradient>
<linearGradient id="paint3_linear_37_465" x1="1358.5" y1="-2.49779e-08" x2="1358.5" y2="443" gradientUnits="userSpaceOnUse">
<stop stop-color="#7832DF" stop-opacity="0.6"/>
<stop offset="1" stop-opacity="0"/>
</linearGradient>
<linearGradient id="paint4_linear_37_465" x1="154.498" y1="-2.49779e-08" x2="154.498" y2="443" gradientUnits="userSpaceOnUse">
<stop stop-color="#7832DF" stop-opacity="0.6"/>
<stop offset="1" stop-opacity="0"/>
</linearGradient>
<linearGradient id="paint5_linear_37_465" x1="584.498" y1="-2.49779e-08" x2="584.498" y2="443" gradientUnits="userSpaceOnUse">
<stop stop-color="#7832DF" stop-opacity="0.6"/>
<stop offset="1" stop-opacity="0"/>
</linearGradient>
<linearGradient id="paint6_linear_37_465" x1="1014.5" y1="-2.49779e-08" x2="1014.5" y2="443" gradientUnits="userSpaceOnUse">
<stop stop-color="#7832DF" stop-opacity="0.6"/>
<stop offset="1" stop-opacity="0"/>
</linearGradient>
<linearGradient id="paint7_linear_37_465" x1="1444.5" y1="-2.49779e-08" x2="1444.5" y2="443" gradientUnits="userSpaceOnUse">
<stop stop-color="#7832DF" stop-opacity="0.6"/>
<stop offset="1" stop-opacity="0"/>
</linearGradient>
<linearGradient id="paint8_linear_37_465" x1="240.498" y1="-2.49779e-08" x2="240.498" y2="443" gradientUnits="userSpaceOnUse">
<stop stop-color="#7832DF" stop-opacity="0.6"/>
<stop offset="1" stop-opacity="0"/>
</linearGradient>
<linearGradient id="paint9_linear_37_465" x1="670.498" y1="-2.49779e-08" x2="670.498" y2="443" gradientUnits="userSpaceOnUse">
<stop stop-color="#7832DF" stop-opacity="0.6"/>
<stop offset="1" stop-opacity="0"/>
</linearGradient>
<linearGradient id="paint10_linear_37_465" x1="1100.5" y1="-2.49779e-08" x2="1100.5" y2="443" gradientUnits="userSpaceOnUse">
<stop stop-color="#7832DF" stop-opacity="0.6"/>
<stop offset="1" stop-opacity="0"/>
</linearGradient>
<linearGradient id="paint11_linear_37_465" x1="326.498" y1="-2.49779e-08" x2="326.498" y2="443" gradientUnits="userSpaceOnUse">
<stop stop-color="#7832DF" stop-opacity="0.6"/>
<stop offset="1" stop-opacity="0"/>
</linearGradient>
<linearGradient id="paint12_linear_37_465" x1="756.498" y1="-2.49779e-08" x2="756.498" y2="443" gradientUnits="userSpaceOnUse">
<stop stop-color="#7832DF" stop-opacity="0.6"/>
<stop offset="1" stop-opacity="0"/>
</linearGradient>
<linearGradient id="paint13_linear_37_465" x1="1186.5" y1="-2.49779e-08" x2="1186.5" y2="443" gradientUnits="userSpaceOnUse">
<stop stop-color="#7832DF" stop-opacity="0.6"/>
<stop offset="1" stop-opacity="0"/>
</linearGradient>
<linearGradient id="paint14_linear_37_465" x1="412.498" y1="-2.49779e-08" x2="412.498" y2="443" gradientUnits="userSpaceOnUse">
<stop stop-color="#7832DF" stop-opacity="0.6"/>
<stop offset="1" stop-opacity="0"/>
</linearGradient>
<linearGradient id="paint15_linear_37_465" x1="842.498" y1="-2.49779e-08" x2="842.498" y2="443" gradientUnits="userSpaceOnUse">
<stop stop-color="#7832DF" stop-opacity="0.6"/>
<stop offset="1" stop-opacity="0"/>
</linearGradient>
<linearGradient id="paint16_linear_37_465" x1="1272.5" y1="-2.49779e-08" x2="1272.5" y2="443" gradientUnits="userSpaceOnUse">
<stop stop-color="#7832DF" stop-opacity="0.6"/>
<stop offset="1" stop-opacity="0"/>
</linearGradient>
<linearGradient id="paint17_linear_37_465" x1="1512" y1="74.875" x2="-0.403072" y2="71.8285" gradientUnits="userSpaceOnUse">
<stop stop-color="#7832DF" stop-opacity="0.6"/>
<stop offset="1" stop-color="white" stop-opacity="0"/>
</linearGradient>
<linearGradient id="paint18_linear_37_465" x1="1512" y1="368.5" x2="-0.403072" y2="365.453" gradientUnits="userSpaceOnUse">
<stop stop-color="#7832DF" stop-opacity="0.6"/>
<stop offset="1" stop-color="white" stop-opacity="0"/>
</linearGradient>
<linearGradient id="paint19_linear_37_465" x1="1512" y1="172.5" x2="-0.403072" y2="169.453" gradientUnits="userSpaceOnUse">
<stop stop-color="#7832DF" stop-opacity="0.6"/>
<stop offset="1" stop-color="white" stop-opacity="0"/>
</linearGradient>
<linearGradient id="paint20_linear_37_465" x1="1512" y1="270.5" x2="-0.403072" y2="267.453" gradientUnits="userSpaceOnUse">
<stop stop-color="#7832DF" stop-opacity="0.6"/>
<stop offset="1" stop-color="white" stop-opacity="0"/>
</linearGradient>
<clipPath id="clip0_37_465">
<rect width="1512" height="443" fill="white"/>
</clipPath>
</defs>
</svg>
