<svg width="44" height="44" viewBox="0 0 44 44" fill="none" xmlns="http://www.w3.org/2000/svg">
<rect width="44" height="44" stroke="white"/>
<path d="M0.5 6.875C0.5 3.35418 3.35418 0.5 6.875 0.5H37.125C40.6458 0.5 43.5 3.35418 43.5 6.875V37.125C43.5 40.6458 40.6458 43.5 37.125 43.5H6.875C3.35418 43.5 0.5 40.6458 0.5 37.125V6.875Z" fill="black" stroke="white"/>
<path d="M19.9353 19.6629V18.8065C19.6418 18.7673 19.3435 18.7428 19.0355 18.7428C15.3629 18.738 12.375 21.7284 12.375 25.4089C12.375 27.6652 13.4997 29.6621 15.2211 30.871C14.111 29.6817 13.4313 28.0812 13.4313 26.329C13.4313 22.7023 16.3361 19.7462 19.9353 19.6629Z" fill="#25F4EE"/>
<path d="M20.0975 29.3733C21.7357 29.3733 23.0756 28.0665 23.1343 26.4416L23.1392 11.9201H25.7897C25.7359 11.6216 25.7065 11.3132 25.7065 11H22.0878L22.0829 25.5215C22.0242 27.1464 20.6843 28.4531 19.0461 28.4531C18.5375 28.4531 18.0583 28.3259 17.6328 28.1008C18.1805 28.8692 19.0803 29.3733 20.0975 29.3733Z" fill="#25F4EE"/>
<path d="M30.7434 16.8487V16.0412C29.7312 16.0412 28.7922 15.7426 28 15.2238C28.7042 16.0314 29.6578 16.6187 30.7434 16.8487Z" fill="#25F4EE"/>
<path d="M27.9984 15.2238C27.2257 14.338 26.7612 13.1829 26.7612 11.9202H25.793C26.0423 13.3004 26.8639 14.4848 27.9984 15.2238Z" fill="#FE2C55"/>
<path d="M19.0398 22.3596C17.3624 22.3596 15.998 23.7252 15.998 25.4039C15.998 26.5737 16.6631 27.5917 17.6314 28.1007C17.2695 27.6015 17.0543 26.9897 17.0543 26.3241C17.0543 24.6453 18.4187 23.2798 20.0961 23.2798C20.409 23.2798 20.7122 23.3336 20.9958 23.4217V19.7217C20.7024 19.6825 20.4041 19.658 20.0961 19.658C20.0422 19.658 19.9933 19.6629 19.9395 19.6629V22.5016C19.651 22.4135 19.3527 22.3596 19.0398 22.3596Z" fill="#FE2C55"/>
<path d="M30.7422 16.8488V19.663C28.8644 19.663 27.1235 19.061 25.7053 18.043V25.4089C25.7053 29.0846 22.7174 32.0799 19.0399 32.0799C17.6218 32.0799 16.3014 31.6296 15.2207 30.871C16.4384 32.1778 18.1744 33.0001 20.0963 33.0001C23.7688 33.0001 26.7616 30.0096 26.7616 26.3291V18.9631C28.1797 19.9811 29.9206 20.5831 31.7985 20.5831V16.9614C31.4317 16.9614 31.0796 16.9222 30.7422 16.8488Z" fill="#FE2C55"/>
<path d="M25.706 25.4089V18.0429C27.1242 19.061 28.8651 19.6629 30.743 19.6629V16.8487C29.6573 16.6187 28.7037 16.0314 27.9996 15.2238C26.865 14.4848 26.0484 13.3004 25.7892 11.9202H23.1387L23.1338 26.4416C23.0751 28.0665 21.7352 29.3733 20.097 29.3733C19.0798 29.3733 18.1849 28.8692 17.6274 28.1057C16.6592 27.5918 15.9941 26.5787 15.9941 25.4089C15.9941 23.7302 17.3585 22.3646 19.0358 22.3646C19.3488 22.3646 19.652 22.4185 19.9356 22.5066V19.6678C16.3364 19.7462 13.4316 22.7023 13.4316 26.329C13.4316 28.0812 14.1114 29.6768 15.2215 30.871C16.3022 31.6296 17.6225 32.0799 19.0407 32.0799C22.7133 32.0799 25.706 29.0845 25.706 25.4089Z" fill="white"/>
</svg>
