<svg width="49" height="49" viewBox="0 0 49 49" fill="none" xmlns="http://www.w3.org/2000/svg">
<circle cx="24.0097" cy="24.0098" r="24" transform="rotate(0.0234016 24.0097 24.0098)" fill="#1D9BF0"/>
<path d="M36.7369 17.4877C36.7563 17.7697 36.7562 18.0518 36.7561 18.3365C36.7525 27.0109 30.1444 37.0123 18.0685 37.0074L18.0685 37.0022C14.5012 37.0059 11.0085 35.9828 8.00621 34.0551C8.52489 34.1177 9.04619 34.1491 9.5688 34.1506C12.525 34.1544 15.3972 33.1638 17.7237 31.3383C14.9144 31.2839 12.4516 29.4513 11.592 26.777C12.5761 26.9672 13.5901 26.9286 14.5561 26.6651C11.4935 26.0451 9.2911 23.3534 9.29238 20.2284C9.29239 20.1998 9.2924 20.1725 9.29241 20.1452C10.2048 20.6538 11.2265 20.9363 12.2717 20.9679C9.38776 19.039 8.50012 15.2013 10.2434 12.2018C13.5749 16.3044 18.4919 18.7996 23.7712 19.0657C23.243 16.7854 23.9668 14.3964 25.6731 12.7943C28.3183 10.31 32.477 10.4391 34.9616 13.0828C36.432 12.7935 37.8415 12.2546 39.1314 11.4908C38.6407 13.0102 37.6144 14.3006 36.2439 15.1203C37.5453 14.9674 38.8168 14.6196 40.0144 14.0884C39.1324 15.4088 38.0217 16.5587 36.7369 17.4877Z" fill="white"/>
</svg>
