<svg width="1512" height="774" viewBox="0 0 1512 774" fill="none" xmlns="http://www.w3.org/2000/svg">
<g clip-path="url(#clip0_37_198)">
<rect width="1512" height="774" fill="#020202"/>
<g opacity="0.61" filter="url(#filter0_f_37_198)">
<path fill-rule="evenodd" clip-rule="evenodd" d="M1298.65 396.638C1288.25 487.308 1187.94 525.111 1098.29 542.189C1023.96 556.348 944.979 536.085 905.513 471.529C866.113 407.08 883.114 326.751 930.731 268.111C983.037 203.695 1061.06 156.139 1139.39 183.505C1231.96 215.841 1309.81 299.226 1298.65 396.638Z" fill="#41B883"/>
</g>
<g opacity="0.67" filter="url(#filter1_f_37_198)">
<path fill-rule="evenodd" clip-rule="evenodd" d="M968.646 499.638C958.255 590.308 857.938 628.111 768.286 645.189C693.959 659.348 614.979 639.085 575.513 574.529C536.113 510.08 553.114 429.751 600.731 371.111C653.037 306.695 731.058 259.139 809.393 286.505C901.956 318.841 979.809 402.226 968.646 499.638Z" fill="#FFD522"/>
</g>
<path d="M586.898 343V284.68H633.149C635.363 284.68 637.361 285.22 639.143 286.3C640.979 287.38 642.437 288.838 643.517 290.674C644.651 292.456 645.218 294.454 645.218 296.668V331.012C645.218 333.172 644.651 335.17 643.517 337.006C642.437 338.842 640.979 340.3 639.143 341.38C637.361 342.46 635.363 343 633.149 343H586.898ZM599.372 330.364H632.501V297.316H599.372V330.364ZM654.45 343V284.68H708.315V297.316H667.167V307.522H700.296V320.158H667.167V330.364H708.315V343H654.45ZM728.13 343C725.97 343 723.972 342.46 722.136 341.38C720.3 340.3 718.842 338.842 717.762 337.006C716.682 335.17 716.142 333.172 716.142 331.012V325.585H728.697V330.364H761.745V320.158H728.13C725.97 320.158 723.972 319.618 722.136 318.538C720.3 317.458 718.842 316.027 717.762 314.245C716.682 312.409 716.142 310.384 716.142 308.17V296.668C716.142 294.454 716.682 292.456 717.762 290.674C718.842 288.838 720.3 287.38 722.136 286.3C723.972 285.22 725.97 284.68 728.13 284.68H762.474C764.634 284.68 766.605 285.22 768.387 286.3C770.223 287.38 771.681 288.838 772.761 290.674C773.895 292.456 774.462 294.454 774.462 296.668V302.095H761.745V297.316H728.697V307.522H762.474C764.634 307.522 766.605 308.062 768.387 309.142C770.223 310.222 771.681 311.68 772.761 313.516C773.895 315.298 774.462 317.296 774.462 319.51V331.012C774.462 333.172 773.895 335.17 772.761 337.006C771.681 338.842 770.223 340.3 768.387 341.38C766.605 342.46 764.634 343 762.474 343H728.13ZM781.357 343V284.68H793.75V343H781.357ZM812.693 343C810.533 343 808.535 342.46 806.699 341.38C804.863 340.3 803.405 338.842 802.325 337.006C801.245 335.17 800.705 333.172 800.705 331.012V296.668C800.705 294.454 801.245 292.456 802.325 290.674C803.405 288.838 804.863 287.38 806.699 286.3C808.535 285.22 810.533 284.68 812.693 284.68H846.956C849.17 284.68 851.168 285.22 852.95 286.3C854.786 287.38 856.244 288.838 857.324 290.674C858.458 292.456 859.025 294.454 859.025 296.668V302.176H846.308V297.316H813.26V330.364H846.308V321.616H833.672V308.98H859.025V331.012C859.025 333.172 858.458 335.17 857.324 337.006C856.244 338.842 854.786 340.3 852.95 341.38C851.168 342.46 849.17 343 846.956 343H812.693ZM867.942 343V284.68H880.902L913.545 323.56V284.68H926.262V343H913.302L880.497 303.958V343H867.942Z" fill="white"/>
<path d="M586.898 343V284.68H633.149C635.363 284.68 637.361 285.22 639.143 286.3C640.979 287.38 642.437 288.838 643.517 290.674C644.651 292.456 645.218 294.454 645.218 296.668V331.012C645.218 333.172 644.651 335.17 643.517 337.006C642.437 338.842 640.979 340.3 639.143 341.38C637.361 342.46 635.363 343 633.149 343H586.898ZM599.372 330.364H632.501V297.316H599.372V330.364ZM654.45 343V284.68H708.315V297.316H667.167V307.522H700.296V320.158H667.167V330.364H708.315V343H654.45ZM728.13 343C725.97 343 723.972 342.46 722.136 341.38C720.3 340.3 718.842 338.842 717.762 337.006C716.682 335.17 716.142 333.172 716.142 331.012V325.585H728.697V330.364H761.745V320.158H728.13C725.97 320.158 723.972 319.618 722.136 318.538C720.3 317.458 718.842 316.027 717.762 314.245C716.682 312.409 716.142 310.384 716.142 308.17V296.668C716.142 294.454 716.682 292.456 717.762 290.674C718.842 288.838 720.3 287.38 722.136 286.3C723.972 285.22 725.97 284.68 728.13 284.68H762.474C764.634 284.68 766.605 285.22 768.387 286.3C770.223 287.38 771.681 288.838 772.761 290.674C773.895 292.456 774.462 294.454 774.462 296.668V302.095H761.745V297.316H728.697V307.522H762.474C764.634 307.522 766.605 308.062 768.387 309.142C770.223 310.222 771.681 311.68 772.761 313.516C773.895 315.298 774.462 317.296 774.462 319.51V331.012C774.462 333.172 773.895 335.17 772.761 337.006C771.681 338.842 770.223 340.3 768.387 341.38C766.605 342.46 764.634 343 762.474 343H728.13ZM781.357 343V284.68H793.75V343H781.357ZM812.693 343C810.533 343 808.535 342.46 806.699 341.38C804.863 340.3 803.405 338.842 802.325 337.006C801.245 335.17 800.705 333.172 800.705 331.012V296.668C800.705 294.454 801.245 292.456 802.325 290.674C803.405 288.838 804.863 287.38 806.699 286.3C808.535 285.22 810.533 284.68 812.693 284.68H846.956C849.17 284.68 851.168 285.22 852.95 286.3C854.786 287.38 856.244 288.838 857.324 290.674C858.458 292.456 859.025 294.454 859.025 296.668V302.176H846.308V297.316H813.26V330.364H846.308V321.616H833.672V308.98H859.025V331.012C859.025 333.172 858.458 335.17 857.324 337.006C856.244 338.842 854.786 340.3 852.95 341.38C851.168 342.46 849.17 343 846.956 343H812.693ZM867.942 343V284.68H880.902L913.545 323.56V284.68H926.262V343H913.302L880.497 303.958V343H867.942Z" fill="url(#paint0_linear_37_198)"/>
<path d="M496.143 490V431.68H542.394C544.608 431.68 546.606 432.22 548.388 433.3C550.224 434.38 551.682 435.838 552.762 437.674C553.896 439.456 554.463 441.454 554.463 443.668V478.012C554.463 480.172 553.896 482.17 552.762 484.006C551.682 485.842 550.224 487.3 548.388 488.38C546.606 489.46 544.608 490 542.394 490H496.143ZM508.617 477.364H541.746V444.316H508.617V477.364ZM563.696 490V431.68H617.561V444.316H576.413V454.522H609.542V467.158H576.413V477.364H617.561V490H563.696ZM657.625 490L623.848 431.68H638.428L662.89 474.043L687.352 431.68H701.851L668.074 490H657.625ZM706.948 490V431.68H760.813V444.316H719.665V454.522H752.794V467.158H719.665V477.364H760.813V490H706.948ZM768.883 490V431.599H781.438V477.364H827.203V490H768.883ZM843.751 490C841.591 490 839.593 489.46 837.757 488.38C835.921 487.3 834.463 485.842 833.383 484.006C832.303 482.17 831.763 480.172 831.763 478.012V443.668C831.763 441.454 832.303 439.456 833.383 437.674C834.463 435.838 835.921 434.38 837.757 433.3C839.593 432.22 841.591 431.68 843.751 431.68H878.095C880.255 431.68 882.226 432.22 884.008 433.3C885.844 434.38 887.302 435.838 888.382 437.674C889.516 439.456 890.083 441.454 890.083 443.668V478.012C890.083 480.172 889.516 482.17 888.382 484.006C887.302 485.842 885.844 487.3 884.008 488.38C882.226 489.46 880.255 490 878.095 490H843.751ZM844.318 477.364H877.366V444.316H844.318V477.364ZM899.003 490V431.761H945.254C947.468 431.761 949.466 432.301 951.248 433.381C953.084 434.461 954.542 435.919 955.622 437.755C956.756 439.591 957.323 441.589 957.323 443.749V458.815C957.323 460.975 956.756 462.973 955.622 464.809C954.542 466.645 953.084 468.103 951.248 469.183C949.466 470.263 947.468 470.803 945.254 470.803L911.558 470.884V490H899.003ZM911.558 458.167H944.606V444.316H911.558V458.167ZM963.238 490V431.68H1017.1V444.316H975.955V454.522H1009.08V467.158H975.955V477.364H1017.1V490H963.238Z" fill="white"/>
<path d="M628.859 637V578.68H641.414V601.522H675.839V578.68H688.394V637H675.839V614.158H641.414V637H628.859ZM709.502 637C707.342 637 705.344 636.46 703.508 635.38C701.672 634.3 700.214 632.842 699.134 631.006C698.054 629.17 697.514 627.172 697.514 625.012V590.668C697.514 588.454 698.054 586.456 699.134 584.674C700.214 582.838 701.672 581.38 703.508 580.3C705.344 579.22 707.342 578.68 709.502 578.68H743.846C746.006 578.68 747.977 579.22 749.759 580.3C751.595 581.38 753.053 582.838 754.133 584.674C755.267 586.456 755.834 588.454 755.834 590.668V625.012C755.834 627.172 755.267 629.17 754.133 631.006C753.053 632.842 751.595 634.3 749.759 635.38C747.977 636.46 746.006 637 743.846 637H709.502ZM710.069 624.364H743.117V591.316H710.069V624.364ZM776.58 637C774.42 637 772.422 636.46 770.586 635.38C768.75 634.3 767.292 632.842 766.212 631.006C765.132 629.17 764.592 627.172 764.592 625.012V619.585H777.147V624.364H810.195V614.158H776.58C774.42 614.158 772.422 613.618 770.586 612.538C768.75 611.458 767.292 610.027 766.212 608.245C765.132 606.409 764.592 604.384 764.592 602.17V590.668C764.592 588.454 765.132 586.456 766.212 584.674C767.292 582.838 768.75 581.38 770.586 580.3C772.422 579.22 774.42 578.68 776.58 578.68H810.924C813.084 578.68 815.055 579.22 816.837 580.3C818.673 581.38 820.131 582.838 821.211 584.674C822.345 586.456 822.912 588.454 822.912 590.668V596.095H810.195V591.316H777.147V601.522H810.924C813.084 601.522 815.055 602.062 816.837 603.142C818.673 604.222 820.131 605.68 821.211 607.516C822.345 609.298 822.912 611.296 822.912 613.51V625.012C822.912 627.172 822.345 629.17 821.211 631.006C820.131 632.842 818.673 634.3 816.837 635.38C815.055 636.46 813.084 637 810.924 637H776.58ZM851.758 637V591.316H828.916V578.68H887.236V591.316H864.394V637H851.758Z" fill="white"/>
<g filter="url(#filter2_d_37_198)">
<path d="M946.06 263.515L937.56 283.515L957.56 272.015C988.893 299.515 1064.66 344.115 1117.06 302.515C1182.56 250.515 1043.06 201.015 971.06 202.015C913.46 202.815 930.393 243.348 946.06 263.515Z" stroke="white" stroke-width="4" shape-rendering="crispEdges"/>
</g>
<g filter="url(#filter3_d_37_198)">
<path d="M939.163 584.122L931.169 603.019L949.978 592.153C979.446 618.137 1050.7 660.277 1099.98 620.971C1161.58 571.839 1030.39 525.069 962.674 526.014C908.504 526.77 924.429 565.068 939.163 584.122Z" stroke="white" stroke-width="4" shape-rendering="crispEdges"/>
</g>
<g filter="url(#filter4_d_37_198)">
<path d="M476.034 403.515L484.534 423.515L464.534 412.015C433.2 439.515 357.434 484.115 305.034 442.515C239.534 390.515 379.034 341.015 451.034 342.015C508.634 342.815 491.701 383.348 476.034 403.515Z" stroke="white" stroke-width="4" shape-rendering="crispEdges"/>
</g>
<path d="M758.5 414.5L761.387 409.5H755.613L758.5 414.5ZM758 363.5V410H759V363.5H758Z" fill="white"/>
<path d="M758.5 561L761.387 556H755.613L758.5 561ZM758 510V556.5H759V510H758Z" fill="white"/>
<path d="M563.209 271.001L564.93 267.39L583.5 279.562L583.07 280.464L563.209 271.001Z" fill="#FFD522"/>
<path d="M898.871 650.546L900.686 646.981L879.72 639.672L879.266 640.563L898.871 650.546Z" fill="#FFD522"/>
<path d="M575.422 258.055L578.853 255.999L587.584 276.415L586.726 276.929L575.422 258.055Z" fill="#FFD522"/>
<path d="M901.695 632.973L901.234 629L879.727 634.516L879.842 635.51L901.695 632.973Z" fill="#FFD522"/>
<path d="M562.436 292.56L560.999 288.826L582.61 283.728L582.969 284.661L562.436 292.56Z" fill="#FFD522"/>
<path d="M882.248 664.294L886.083 663.159L876.959 642.916L876.001 643.2L882.248 664.294Z" fill="#FFD522"/>
</g>
<defs>
<filter id="filter0_f_37_198" x="458.613" y="-249.39" width="1266.1" height="1220.86" filterUnits="userSpaceOnUse" color-interpolation-filters="sRGB">
<feFlood flood-opacity="0" result="BackgroundImageFix"/>
<feBlend mode="normal" in="SourceGraphic" in2="BackgroundImageFix" result="shape"/>
<feGaussianBlur stdDeviation="212.5" result="effect1_foregroundBlur_37_198"/>
</filter>
<filter id="filter1_f_37_198" x="128.613" y="-146.39" width="1266.1" height="1220.86" filterUnits="userSpaceOnUse" color-interpolation-filters="sRGB">
<feFlood flood-opacity="0" result="BackgroundImageFix"/>
<feBlend mode="normal" in="SourceGraphic" in2="BackgroundImageFix" result="shape"/>
<feGaussianBlur stdDeviation="212.5" result="effect1_foregroundBlur_37_198"/>
</filter>
<filter id="filter2_d_37_198" x="910.5" y="185.5" width="244.094" height="158.478" filterUnits="userSpaceOnUse" color-interpolation-filters="sRGB">
<feFlood flood-opacity="0" result="BackgroundImageFix"/>
<feColorMatrix in="SourceAlpha" type="matrix" values="0 0 0 0 0 0 0 0 0 0 0 0 0 0 0 0 0 0 127 0" result="hardAlpha"/>
<feOffset dy="4"/>
<feGaussianBlur stdDeviation="9.25"/>
<feComposite in2="hardAlpha" operator="out"/>
<feColorMatrix type="matrix" values="0 0 0 0 0.908333 0 0 0 0 0.908333 0 0 0 0 0.908333 0 0 0 0.39 0"/>
<feBlend mode="normal" in2="BackgroundImageFix" result="effect1_dropShadow_37_198"/>
<feBlend mode="normal" in="SourceGraphic" in2="effect1_dropShadow_37_198" result="shape"/>
</filter>
<filter id="filter3_d_37_198" x="904.5" y="509.5" width="232" height="151.999" filterUnits="userSpaceOnUse" color-interpolation-filters="sRGB">
<feFlood flood-opacity="0" result="BackgroundImageFix"/>
<feColorMatrix in="SourceAlpha" type="matrix" values="0 0 0 0 0 0 0 0 0 0 0 0 0 0 0 0 0 0 127 0" result="hardAlpha"/>
<feOffset dy="4"/>
<feGaussianBlur stdDeviation="9.25"/>
<feComposite in2="hardAlpha" operator="out"/>
<feColorMatrix type="matrix" values="0 0 0 0 0.908333 0 0 0 0 0.908333 0 0 0 0 0.908333 0 0 0 0.39 0"/>
<feBlend mode="normal" in2="BackgroundImageFix" result="effect1_dropShadow_37_198"/>
<feBlend mode="normal" in="SourceGraphic" in2="effect1_dropShadow_37_198" result="shape"/>
</filter>
<filter id="filter4_d_37_198" x="267.5" y="325.5" width="244.094" height="158.478" filterUnits="userSpaceOnUse" color-interpolation-filters="sRGB">
<feFlood flood-opacity="0" result="BackgroundImageFix"/>
<feColorMatrix in="SourceAlpha" type="matrix" values="0 0 0 0 0 0 0 0 0 0 0 0 0 0 0 0 0 0 127 0" result="hardAlpha"/>
<feOffset dy="4"/>
<feGaussianBlur stdDeviation="9.25"/>
<feComposite in2="hardAlpha" operator="out"/>
<feColorMatrix type="matrix" values="0 0 0 0 0.908333 0 0 0 0 0.908333 0 0 0 0 0.908333 0 0 0 0.39 0"/>
<feBlend mode="normal" in2="BackgroundImageFix" result="effect1_dropShadow_37_198"/>
<feBlend mode="normal" in="SourceGraphic" in2="effect1_dropShadow_37_198" result="shape"/>
</filter>
<linearGradient id="paint0_linear_37_198" x1="582" y1="312" x2="931" y2="312" gradientUnits="userSpaceOnUse">
<stop offset="0.455" stop-color="#00B3DA"/>
<stop offset="0.665" stop-color="#8987D6"/>
<stop offset="0.84" stop-color="#DC90F7"/>
</linearGradient>
<clipPath id="clip0_37_198">
<rect width="1512" height="774" fill="white"/>
</clipPath>
</defs>
</svg>
