<svg width="49" height="49" viewBox="0 0 49 49" fill="none" xmlns="http://www.w3.org/2000/svg">
<circle cx="24.955" cy="24.0098" r="24" transform="rotate(0.0234016 24.955 24.0098)" fill="url(#paint0_linear_37_365)"/>
<path fill-rule="evenodd" clip-rule="evenodd" d="M11.2116 31.7876L8.94787 40.0033L17.3954 37.8021C19.7309 39.0696 22.3482 39.7343 25.0083 39.7355L25.0151 39.7355C33.7961 39.7391 40.9471 32.6275 40.9544 23.8851C40.9579 19.677 39.2816 15.6401 36.2946 12.6627C33.3076 9.68535 29.2546 8.0116 25.0278 8.00986C16.2451 8.00627 9.09531 15.1163 9.08823 23.8593C9.08367 26.6419 9.81608 29.3766 11.2116 31.7876ZM18.2715 35.2171L17.7879 34.9314L12.7752 36.2376L14.1152 31.3748L13.8001 30.8761C12.4747 28.7746 11.7739 26.3427 11.7786 23.8614C11.7844 16.5946 17.7272 10.6851 25.032 10.6881C32.3458 10.6941 38.27 16.6014 38.2642 23.8827C38.2582 31.15 32.3151 37.0602 25.0162 37.0572L25.011 37.0572C22.6395 37.0564 20.3117 36.4209 18.2715 35.2171Z" fill="url(#paint1_linear_37_365)"/>
<path fill-rule="evenodd" clip-rule="evenodd" d="M21.0417 17.2355C20.744 16.5754 20.4297 16.562 20.1461 16.5506C19.914 16.5407 19.6484 16.5412 19.3832 16.541C18.9752 16.5515 18.5902 16.7311 18.3211 17.0365C17.956 17.4329 16.927 18.3912 16.9262 20.3412C16.9254 22.2911 18.3513 24.1761 18.5502 24.4411C18.749 24.706 21.3025 28.8358 25.3483 30.4261C28.7107 31.7477 29.3951 31.4854 30.1251 31.4197C30.8552 31.354 32.4808 30.4624 32.813 29.5367C33.1453 28.6111 33.1455 27.8181 33.046 27.6525C32.9466 27.487 32.6811 27.3882 32.2831 27.1898C31.885 26.9915 29.9283 26.0317 29.5633 25.8994C29.1983 25.7671 28.933 25.7009 28.6674 26.0977C28.4017 26.4944 27.6389 27.3861 27.4062 27.6502C27.1736 27.9143 26.9416 27.9479 26.5435 27.7496C26.1454 27.5512 24.8631 27.132 23.3429 25.7812C22.1598 24.7303 21.3614 23.4327 21.1293 23.0358C20.8972 22.639 21.1046 22.4247 21.3044 22.2272C21.4832 22.0498 21.7028 21.7648 21.9019 21.5334C22.1011 21.3021 22.1671 21.1369 22.3 20.8727C22.4329 20.6085 22.3665 20.3766 22.267 20.1784C22.1676 19.9801 21.3953 18.0193 21.0417 17.2355Z" fill="white"/>
<defs>
<linearGradient id="paint0_linear_37_365" x1="48.955" y1="48.0098" x2="48.955" y2="0.00980186" gradientUnits="userSpaceOnUse">
<stop stop-color="#20B038"/>
<stop offset="1" stop-color="#60D66A"/>
</linearGradient>
<linearGradient id="paint1_linear_37_365" x1="40.9479" y1="40.0164" x2="40.9609" y2="8.01637" gradientUnits="userSpaceOnUse">
<stop stop-color="#F9F9F9"/>
<stop offset="1" stop-color="white"/>
</linearGradient>
</defs>
</svg>
